<svg width="88" height="88" viewBox="0 0 88 88" fill="none" xmlns="http://www.w3.org/2000/svg">
<g clip-path="url(#clip0_2527_8308)">
<path d="M88 0H0V88H88V0Z" fill="white"/>
<path d="M5.67758 2.83875H2.83887V5.67745H5.67758V2.83875Z" fill="black"/>
<path d="M8.51596 2.83875H5.67725V5.67745H8.51596V2.83875Z" fill="black"/>
<path d="M11.3548 2.83875H8.51611V5.67745H11.3548V2.83875Z" fill="black"/>
<path d="M14.1937 2.83875H11.355V5.67745H14.1937V2.83875Z" fill="black"/>
<path d="M17.0321 2.83875H14.1934V5.67745H17.0321V2.83875Z" fill="black"/>
<path d="M19.8709 2.83875H17.0322V5.67745H19.8709V2.83875Z" fill="black"/>
<path d="M22.7098 2.83875H19.8711V5.67745H22.7098V2.83875Z" fill="black"/>
<path d="M31.2259 2.83875H28.3872V5.67745H31.2259V2.83875Z" fill="black"/>
<path d="M34.0643 2.83875H31.2256V5.67745H34.0643V2.83875Z" fill="black"/>
<path d="M36.9032 2.83875H34.0645V5.67745H36.9032V2.83875Z" fill="black"/>
<path d="M45.4193 2.83875H42.5806V5.67745H45.4193V2.83875Z" fill="black"/>
<path d="M48.2581 2.83875H45.4194V5.67745H48.2581V2.83875Z" fill="black"/>
<path d="M56.7743 2.83875H53.9355V5.67745H56.7743V2.83875Z" fill="black"/>
<path d="M59.6131 2.83875H56.7744V5.67745H59.6131V2.83875Z" fill="black"/>
<path d="M68.1292 2.83875H65.2905V5.67745H68.1292V2.83875Z" fill="black"/>
<path d="M70.9676 2.83875H68.1289V5.67745H70.9676V2.83875Z" fill="black"/>
<path d="M73.8065 2.83875H70.9678V5.67745H73.8065V2.83875Z" fill="black"/>
<path d="M76.6454 2.83875H73.8066V5.67745H76.6454V2.83875Z" fill="black"/>
<path d="M79.4837 2.83875H76.645V5.67745H79.4837V2.83875Z" fill="black"/>
<path d="M82.3226 2.83875H79.4839V5.67745H82.3226V2.83875Z" fill="black"/>
<path d="M85.1615 2.83875H82.3228V5.67745H85.1615V2.83875Z" fill="black"/>
<path d="M5.67758 5.67737H2.83887V8.51608H5.67758V5.67737Z" fill="black"/>
<path d="M22.7098 5.67737H19.8711V8.51608H22.7098V5.67737Z" fill="black"/>
<path d="M28.387 5.67737H25.5483V8.51608H28.387V5.67737Z" fill="black"/>
<path d="M31.2259 5.67737H28.3872V8.51608H31.2259V5.67737Z" fill="black"/>
<path d="M34.0643 5.67737H31.2256V8.51608H34.0643V5.67737Z" fill="black"/>
<path d="M36.9032 5.67737H34.0645V8.51608H36.9032V5.67737Z" fill="black"/>
<path d="M42.5804 5.67737H39.7417V8.51608H42.5804V5.67737Z" fill="black"/>
<path d="M45.4193 5.67737H42.5806V8.51608H45.4193V5.67737Z" fill="black"/>
<path d="M48.2581 5.67737H45.4194V8.51608H48.2581V5.67737Z" fill="black"/>
<path d="M51.097 5.67737H48.2583V8.51608H51.097V5.67737Z" fill="black"/>
<path d="M62.4515 5.67737H59.6128V8.51608H62.4515V5.67737Z" fill="black"/>
<path d="M68.1292 5.67737H65.2905V8.51608H68.1292V5.67737Z" fill="black"/>
<path d="M85.1615 5.67737H82.3228V8.51608H85.1615V5.67737Z" fill="black"/>
<path d="M5.67758 8.51611H2.83887V11.3548H5.67758V8.51611Z" fill="black"/>
<path d="M11.3548 8.51611H8.51611V11.3548H11.3548V8.51611Z" fill="black"/>
<path d="M14.1937 8.51611H11.355V11.3548H14.1937V8.51611Z" fill="black"/>
<path d="M17.0321 8.51611H14.1934V11.3548H17.0321V8.51611Z" fill="black"/>
<path d="M22.7098 8.51611H19.8711V11.3548H22.7098V8.51611Z" fill="black"/>
<path d="M31.2259 8.51611H28.3872V11.3548H31.2259V8.51611Z" fill="black"/>
<path d="M39.742 8.51611H36.9033V11.3548H39.742V8.51611Z" fill="black"/>
<path d="M42.5804 8.51611H39.7417V11.3548H42.5804V8.51611Z" fill="black"/>
<path d="M45.4193 8.51611H42.5806V11.3548H45.4193V8.51611Z" fill="black"/>
<path d="M56.7743 8.51611H53.9355V11.3548H56.7743V8.51611Z" fill="black"/>
<path d="M62.4515 8.51611H59.6128V11.3548H62.4515V8.51611Z" fill="black"/>
<path d="M68.1292 8.51611H65.2905V11.3548H68.1292V8.51611Z" fill="black"/>
<path d="M73.8065 8.51611H70.9678V11.3548H73.8065V8.51611Z" fill="black"/>
<path d="M76.6454 8.51611H73.8066V11.3548H76.6454V8.51611Z" fill="black"/>
<path d="M79.4837 8.51611H76.645V11.3548H79.4837V8.51611Z" fill="black"/>
<path d="M85.1615 8.51611H82.3228V11.3548H85.1615V8.51611Z" fill="black"/>
<path d="M5.67758 11.3549H2.83887V14.1936H5.67758V11.3549Z" fill="black"/>
<path d="M11.3548 11.3549H8.51611V14.1936H11.3548V11.3549Z" fill="black"/>
<path d="M14.1937 11.3549H11.355V14.1936H14.1937V11.3549Z" fill="black"/>
<path d="M17.0321 11.3549H14.1934V14.1936H17.0321V11.3549Z" fill="black"/>
<path d="M22.7098 11.3549H19.8711V14.1936H22.7098V11.3549Z" fill="black"/>
<path d="M28.387 11.3549H25.5483V14.1936H28.387V11.3549Z" fill="black"/>
<path d="M39.742 11.3549H36.9033V14.1936H39.742V11.3549Z" fill="black"/>
<path d="M42.5804 11.3549H39.7417V14.1936H42.5804V11.3549Z" fill="black"/>
<path d="M48.2581 11.3549H45.4194V14.1936H48.2581V11.3549Z" fill="black"/>
<path d="M53.9354 11.3549H51.0967V14.1936H53.9354V11.3549Z" fill="black"/>
<path d="M59.6131 11.3549H56.7744V14.1936H59.6131V11.3549Z" fill="black"/>
<path d="M62.4515 11.3549H59.6128V14.1936H62.4515V11.3549Z" fill="black"/>
<path d="M68.1292 11.3549H65.2905V14.1936H68.1292V11.3549Z" fill="black"/>
<path d="M73.8065 11.3549H70.9678V14.1936H73.8065V11.3549Z" fill="black"/>
<path d="M76.6454 11.3549H73.8066V14.1936H76.6454V11.3549Z" fill="black"/>
<path d="M79.4837 11.3549H76.645V14.1936H79.4837V11.3549Z" fill="black"/>
<path d="M85.1615 11.3549H82.3228V14.1936H85.1615V11.3549Z" fill="black"/>
<path d="M5.67758 14.1936H2.83887V17.0323H5.67758V14.1936Z" fill="black"/>
<path d="M11.3548 14.1936H8.51611V17.0323H11.3548V14.1936Z" fill="black"/>
<path d="M14.1937 14.1936H11.355V17.0323H14.1937V14.1936Z" fill="black"/>
<path d="M17.0321 14.1936H14.1934V17.0323H17.0321V14.1936Z" fill="black"/>
<path d="M22.7098 14.1936H19.8711V17.0323H22.7098V14.1936Z" fill="black"/>
<path d="M28.387 14.1936H25.5483V17.0323H28.387V14.1936Z" fill="black"/>
<path d="M34.0643 14.1936H31.2256V17.0323H34.0643V14.1936Z" fill="black"/>
<path d="M36.9032 14.1936H34.0645V17.0323H36.9032V14.1936Z" fill="black"/>
<path d="M45.4193 14.1936H42.5806V17.0323H45.4193V14.1936Z" fill="black"/>
<path d="M48.2581 14.1936H45.4194V17.0323H48.2581V14.1936Z" fill="black"/>
<path d="M51.097 14.1936H48.2583V17.0323H51.097V14.1936Z" fill="black"/>
<path d="M53.9354 14.1936H51.0967V17.0323H53.9354V14.1936Z" fill="black"/>
<path d="M56.7743 14.1936H53.9355V17.0323H56.7743V14.1936Z" fill="black"/>
<path d="M59.6131 14.1936H56.7744V17.0323H59.6131V14.1936Z" fill="black"/>
<path d="M68.1292 14.1936H65.2905V17.0323H68.1292V14.1936Z" fill="black"/>
<path d="M73.8065 14.1936H70.9678V17.0323H73.8065V14.1936Z" fill="black"/>
<path d="M76.6454 14.1936H73.8066V17.0323H76.6454V14.1936Z" fill="black"/>
<path d="M79.4837 14.1936H76.645V17.0323H79.4837V14.1936Z" fill="black"/>
<path d="M85.1615 14.1936H82.3228V17.0323H85.1615V14.1936Z" fill="black"/>
<path d="M5.67758 17.0322H2.83887V19.8709H5.67758V17.0322Z" fill="black"/>
<path d="M22.7098 17.0322H19.8711V19.8709H22.7098V17.0322Z" fill="black"/>
<path d="M31.2259 17.0322H28.3872V19.8709H31.2259V17.0322Z" fill="black"/>
<path d="M34.0643 17.0322H31.2256V19.8709H34.0643V17.0322Z" fill="black"/>
<path d="M36.9032 17.0322H34.0645V19.8709H36.9032V17.0322Z" fill="black"/>
<path d="M42.5804 17.0322H39.7417V19.8709H42.5804V17.0322Z" fill="black"/>
<path d="M53.9354 17.0322H51.0967V19.8709H53.9354V17.0322Z" fill="black"/>
<path d="M56.7743 17.0322H53.9355V19.8709H56.7743V17.0322Z" fill="black"/>
<path d="M62.4515 17.0322H59.6128V19.8709H62.4515V17.0322Z" fill="black"/>
<path d="M68.1292 17.0322H65.2905V19.8709H68.1292V17.0322Z" fill="black"/>
<path d="M85.1615 17.0322H82.3228V19.8709H85.1615V17.0322Z" fill="black"/>
<path d="M5.67758 19.871H2.83887V22.7097H5.67758V19.871Z" fill="black"/>
<path d="M8.51596 19.871H5.67725V22.7097H8.51596V19.871Z" fill="black"/>
<path d="M11.3548 19.871H8.51611V22.7097H11.3548V19.871Z" fill="black"/>
<path d="M14.1937 19.871H11.355V22.7097H14.1937V19.871Z" fill="black"/>
<path d="M17.0321 19.871H14.1934V22.7097H17.0321V19.871Z" fill="black"/>
<path d="M19.8709 19.871H17.0322V22.7097H19.8709V19.871Z" fill="black"/>
<path d="M22.7098 19.871H19.8711V22.7097H22.7098V19.871Z" fill="black"/>
<path d="M28.387 19.871H25.5483V22.7097H28.387V19.871Z" fill="black"/>
<path d="M34.0643 19.871H31.2256V22.7097H34.0643V19.871Z" fill="black"/>
<path d="M39.742 19.871H36.9033V22.7097H39.742V19.871Z" fill="black"/>
<path d="M45.4193 19.871H42.5806V22.7097H45.4193V19.871Z" fill="black"/>
<path d="M51.097 19.871H48.2583V22.7097H51.097V19.871Z" fill="black"/>
<path d="M56.7743 19.871H53.9355V22.7097H56.7743V19.871Z" fill="black"/>
<path d="M62.4515 19.871H59.6128V22.7097H62.4515V19.871Z" fill="black"/>
<path d="M68.1292 19.871H65.2905V22.7097H68.1292V19.871Z" fill="black"/>
<path d="M70.9676 19.871H68.1289V22.7097H70.9676V19.871Z" fill="black"/>
<path d="M73.8065 19.871H70.9678V22.7097H73.8065V19.871Z" fill="black"/>
<path d="M76.6454 19.871H73.8066V22.7097H76.6454V19.871Z" fill="black"/>
<path d="M79.4837 19.871H76.645V22.7097H79.4837V19.871Z" fill="black"/>
<path d="M82.3226 19.871H79.4839V22.7097H82.3226V19.871Z" fill="black"/>
<path d="M85.1615 19.871H82.3228V22.7097H85.1615V19.871Z" fill="black"/>
<path d="M28.387 22.7097H25.5483V25.5484H28.387V22.7097Z" fill="black"/>
<path d="M36.9032 22.7097H34.0645V25.5484H36.9032V22.7097Z" fill="black"/>
<path d="M39.742 22.7097H36.9033V25.5484H39.742V22.7097Z" fill="black"/>
<path d="M42.5804 22.7097H39.7417V25.5484H42.5804V22.7097Z" fill="black"/>
<path d="M45.4193 22.7097H42.5806V25.5484H45.4193V22.7097Z" fill="black"/>
<path d="M59.6131 22.7097H56.7744V25.5484H59.6131V22.7097Z" fill="black"/>
<path d="M8.51596 25.5483H5.67725V28.387H8.51596V25.5483Z" fill="black"/>
<path d="M14.1937 25.5483H11.355V28.387H14.1937V25.5483Z" fill="black"/>
<path d="M17.0321 25.5483H14.1934V28.387H17.0321V25.5483Z" fill="black"/>
<path d="M19.8709 25.5483H17.0322V28.387H19.8709V25.5483Z" fill="black"/>
<path d="M22.7098 25.5483H19.8711V28.387H22.7098V25.5483Z" fill="black"/>
<path d="M28.387 25.5483H25.5483V28.387H28.387V25.5483Z" fill="black"/>
<path d="M34.0643 25.5483H31.2256V28.387H34.0643V25.5483Z" fill="black"/>
<path d="M42.5804 25.5483H39.7417V28.387H42.5804V25.5483Z" fill="black"/>
<path d="M45.4193 25.5483H42.5806V28.387H45.4193V25.5483Z" fill="black"/>
<path d="M48.2581 25.5483H45.4194V28.387H48.2581V25.5483Z" fill="black"/>
<path d="M56.7743 25.5483H53.9355V28.387H56.7743V25.5483Z" fill="black"/>
<path d="M59.6131 25.5483H56.7744V28.387H59.6131V25.5483Z" fill="black"/>
<path d="M62.4515 25.5483H59.6128V28.387H62.4515V25.5483Z" fill="black"/>
<path d="M65.2904 25.5483H62.4517V28.387H65.2904V25.5483Z" fill="black"/>
<path d="M68.1292 25.5483H65.2905V28.387H68.1292V25.5483Z" fill="black"/>
<path d="M73.8065 25.5483H70.9678V28.387H73.8065V25.5483Z" fill="black"/>
<path d="M76.6454 25.5483H73.8066V28.387H76.6454V25.5483Z" fill="black"/>
<path d="M82.3226 25.5483H79.4839V28.387H82.3226V25.5483Z" fill="black"/>
<path d="M5.67758 28.3871H2.83887V31.2258H5.67758V28.3871Z" fill="black"/>
<path d="M17.0321 28.3871H14.1934V31.2258H17.0321V28.3871Z" fill="black"/>
<path d="M25.5482 28.3871H22.7095V31.2258H25.5482V28.3871Z" fill="black"/>
<path d="M28.387 28.3871H25.5483V31.2258H28.387V28.3871Z" fill="black"/>
<path d="M42.5804 28.3871H39.7417V31.2258H42.5804V28.3871Z" fill="black"/>
<path d="M51.097 28.3871H48.2583V31.2258H51.097V28.3871Z" fill="black"/>
<path d="M53.9354 28.3871H51.0967V31.2258H53.9354V28.3871Z" fill="black"/>
<path d="M62.4515 28.3871H59.6128V31.2258H62.4515V28.3871Z" fill="black"/>
<path d="M70.9676 28.3871H68.1289V31.2258H70.9676V28.3871Z" fill="black"/>
<path d="M73.8065 28.3871H70.9678V31.2258H73.8065V28.3871Z" fill="black"/>
<path d="M76.6454 28.3871H73.8066V31.2258H76.6454V28.3871Z" fill="black"/>
<path d="M82.3226 28.3871H79.4839V31.2258H82.3226V28.3871Z" fill="black"/>
<path d="M5.67758 31.2258H2.83887V34.0645H5.67758V31.2258Z" fill="black"/>
<path d="M8.51596 31.2258H5.67725V34.0645H8.51596V31.2258Z" fill="black"/>
<path d="M17.0321 31.2258H14.1934V34.0645H17.0321V31.2258Z" fill="black"/>
<path d="M22.7098 31.2258H19.8711V34.0645H22.7098V31.2258Z" fill="black"/>
<path d="M25.5482 31.2258H22.7095V34.0645H25.5482V31.2258Z" fill="black"/>
<path d="M28.387 31.2258H25.5483V34.0645H28.387V31.2258Z" fill="black"/>
<path d="M39.742 31.2258H36.9033V34.0645H39.742V31.2258Z" fill="black"/>
<path d="M42.5804 31.2258H39.7417V34.0645H42.5804V31.2258Z" fill="black"/>
<path d="M48.2581 31.2258H45.4194V34.0645H48.2581V31.2258Z" fill="black"/>
<path d="M53.9354 31.2258H51.0967V34.0645H53.9354V31.2258Z" fill="black"/>
<path d="M56.7743 31.2258H53.9355V34.0645H56.7743V31.2258Z" fill="black"/>
<path d="M68.1292 31.2258H65.2905V34.0645H68.1292V31.2258Z" fill="black"/>
<path d="M73.8065 31.2258H70.9678V34.0645H73.8065V31.2258Z" fill="black"/>
<path d="M76.6454 31.2258H73.8066V34.0645H76.6454V31.2258Z" fill="black"/>
<path d="M5.67758 34.0646H2.83887V36.9033H5.67758V34.0646Z" fill="black"/>
<path d="M8.51596 34.0646H5.67725V36.9033H8.51596V34.0646Z" fill="black"/>
<path d="M11.3548 34.0646H8.51611V36.9033H11.3548V34.0646Z" fill="black"/>
<path d="M14.1937 34.0646H11.355V36.9033H14.1937V34.0646Z" fill="black"/>
<path d="M17.0321 34.0646H14.1934V36.9033H17.0321V34.0646Z" fill="black"/>
<path d="M31.2259 34.0646H28.3872V36.9033H31.2259V34.0646Z" fill="black"/>
<path d="M39.742 34.0646H36.9033V36.9033H39.742V34.0646Z" fill="black"/>
<path d="M45.4193 34.0646H42.5806V36.9033H45.4193V34.0646Z" fill="black"/>
<path d="M48.2581 34.0646H45.4194V36.9033H48.2581V34.0646Z" fill="black"/>
<path d="M53.9354 34.0646H51.0967V36.9033H53.9354V34.0646Z" fill="black"/>
<path d="M65.2904 34.0646H62.4517V36.9033H65.2904V34.0646Z" fill="black"/>
<path d="M76.6454 34.0646H73.8066V36.9033H76.6454V34.0646Z" fill="black"/>
<path d="M85.1615 34.0646H82.3228V36.9033H85.1615V34.0646Z" fill="black"/>
<path d="M14.1937 36.9032H11.355V39.7419H14.1937V36.9032Z" fill="black"/>
<path d="M17.0321 36.9032H14.1934V39.7419H17.0321V36.9032Z" fill="black"/>
<path d="M19.8709 36.9032H17.0322V39.7419H19.8709V36.9032Z" fill="black"/>
<path d="M22.7098 36.9032H19.8711V39.7419H22.7098V36.9032Z" fill="black"/>
<path d="M25.5482 36.9032H22.7095V39.7419H25.5482V36.9032Z" fill="black"/>
<path d="M28.387 36.9032H25.5483V39.7419H28.387V36.9032Z" fill="black"/>
<path d="M34.0643 36.9032H31.2256V39.7419H34.0643V36.9032Z" fill="black"/>
<path d="M36.9032 36.9032H34.0645V39.7419H36.9032V36.9032Z" fill="black"/>
<path d="M48.2581 36.9032H45.4194V39.7419H48.2581V36.9032Z" fill="black"/>
<path d="M51.097 36.9032H48.2583V39.7419H51.097V36.9032Z" fill="black"/>
<path d="M59.6131 36.9032H56.7744V39.7419H59.6131V36.9032Z" fill="black"/>
<path d="M62.4515 36.9032H59.6128V39.7419H62.4515V36.9032Z" fill="black"/>
<path d="M65.2904 36.9032H62.4517V39.7419H65.2904V36.9032Z" fill="black"/>
<path d="M68.1292 36.9032H65.2905V39.7419H68.1292V36.9032Z" fill="black"/>
<path d="M70.9676 36.9032H68.1289V39.7419H70.9676V36.9032Z" fill="black"/>
<path d="M76.6454 36.9032H73.8066V39.7419H76.6454V36.9032Z" fill="black"/>
<path d="M82.3226 36.9032H79.4839V39.7419H82.3226V36.9032Z" fill="black"/>
<path d="M14.1937 39.7419H11.355V42.5807H14.1937V39.7419Z" fill="black"/>
<path d="M28.387 39.7419H25.5483V42.5807H28.387V39.7419Z" fill="black"/>
<path d="M31.2259 39.7419H28.3872V42.5807H31.2259V39.7419Z" fill="black"/>
<path d="M36.9032 39.7419H34.0645V42.5807H36.9032V39.7419Z" fill="black"/>
<path d="M42.5804 39.7419H39.7417V42.5807H42.5804V39.7419Z" fill="black"/>
<path d="M45.4193 39.7419H42.5806V42.5807H45.4193V39.7419Z" fill="black"/>
<path d="M51.097 39.7419H48.2583V42.5807H51.097V39.7419Z" fill="black"/>
<path d="M53.9354 39.7419H51.0967V42.5807H53.9354V39.7419Z" fill="black"/>
<path d="M56.7743 39.7419H53.9355V42.5807H56.7743V39.7419Z" fill="black"/>
<path d="M68.1292 39.7419H65.2905V42.5807H68.1292V39.7419Z" fill="black"/>
<path d="M73.8065 39.7419H70.9678V42.5807H73.8065V39.7419Z" fill="black"/>
<path d="M79.4837 39.7419H76.645V42.5807H79.4837V39.7419Z" fill="black"/>
<path d="M85.1615 39.7419H82.3228V42.5807H85.1615V39.7419Z" fill="black"/>
<path d="M5.67758 42.5807H2.83887V45.4194H5.67758V42.5807Z" fill="black"/>
<path d="M11.3548 42.5807H8.51611V45.4194H11.3548V42.5807Z" fill="black"/>
<path d="M17.0321 42.5807H14.1934V45.4194H17.0321V42.5807Z" fill="black"/>
<path d="M22.7098 42.5807H19.8711V45.4194H22.7098V42.5807Z" fill="black"/>
<path d="M34.0643 42.5807H31.2256V45.4194H34.0643V42.5807Z" fill="black"/>
<path d="M39.742 42.5807H36.9033V45.4194H39.742V42.5807Z" fill="black"/>
<path d="M42.5804 42.5807H39.7417V45.4194H42.5804V42.5807Z" fill="black"/>
<path d="M45.4193 42.5807H42.5806V45.4194H45.4193V42.5807Z" fill="black"/>
<path d="M48.2581 42.5807H45.4194V45.4194H48.2581V42.5807Z" fill="black"/>
<path d="M53.9354 42.5807H51.0967V45.4194H53.9354V42.5807Z" fill="black"/>
<path d="M59.6131 42.5807H56.7744V45.4194H59.6131V42.5807Z" fill="black"/>
<path d="M65.2904 42.5807H62.4517V45.4194H65.2904V42.5807Z" fill="black"/>
<path d="M76.6454 42.5807H73.8066V45.4194H76.6454V42.5807Z" fill="black"/>
<path d="M82.3226 42.5807H79.4839V45.4194H82.3226V42.5807Z" fill="black"/>
<path d="M85.1615 42.5807H82.3228V45.4194H85.1615V42.5807Z" fill="black"/>
<path d="M5.67758 45.4193H2.83887V48.258H5.67758V45.4193Z" fill="black"/>
<path d="M25.5482 45.4193H22.7095V48.258H25.5482V45.4193Z" fill="black"/>
<path d="M28.387 45.4193H25.5483V48.258H28.387V45.4193Z" fill="black"/>
<path d="M42.5804 45.4193H39.7417V48.258H42.5804V45.4193Z" fill="black"/>
<path d="M45.4193 45.4193H42.5806V48.258H45.4193V45.4193Z" fill="black"/>
<path d="M48.2581 45.4193H45.4194V48.258H48.2581V45.4193Z" fill="black"/>
<path d="M51.097 45.4193H48.2583V48.258H51.097V45.4193Z" fill="black"/>
<path d="M53.9354 45.4193H51.0967V48.258H53.9354V45.4193Z" fill="black"/>
<path d="M56.7743 45.4193H53.9355V48.258H56.7743V45.4193Z" fill="black"/>
<path d="M59.6131 45.4193H56.7744V48.258H59.6131V45.4193Z" fill="black"/>
<path d="M76.6454 45.4193H73.8066V48.258H76.6454V45.4193Z" fill="black"/>
<path d="M79.4837 45.4193H76.645V48.258H79.4837V45.4193Z" fill="black"/>
<path d="M82.3226 45.4193H79.4839V48.258H82.3226V45.4193Z" fill="black"/>
<path d="M5.67758 48.2581H2.83887V51.0968H5.67758V48.2581Z" fill="black"/>
<path d="M17.0321 48.2581H14.1934V51.0968H17.0321V48.2581Z" fill="black"/>
<path d="M22.7098 48.2581H19.8711V51.0968H22.7098V48.2581Z" fill="black"/>
<path d="M36.9032 48.2581H34.0645V51.0968H36.9032V48.2581Z" fill="black"/>
<path d="M42.5804 48.2581H39.7417V51.0968H42.5804V48.2581Z" fill="black"/>
<path d="M48.2581 48.2581H45.4194V51.0968H48.2581V48.2581Z" fill="black"/>
<path d="M51.097 48.2581H48.2583V51.0968H51.097V48.2581Z" fill="black"/>
<path d="M53.9354 48.2581H51.0967V51.0968H53.9354V48.2581Z" fill="black"/>
<path d="M59.6131 48.2581H56.7744V51.0968H59.6131V48.2581Z" fill="black"/>
<path d="M62.4515 48.2581H59.6128V51.0968H62.4515V48.2581Z" fill="black"/>
<path d="M70.9676 48.2581H68.1289V51.0968H70.9676V48.2581Z" fill="black"/>
<path d="M76.6454 48.2581H73.8066V51.0968H76.6454V48.2581Z" fill="black"/>
<path d="M85.1615 48.2581H82.3228V51.0968H85.1615V48.2581Z" fill="black"/>
<path d="M5.67758 51.0967H2.83887V53.9354H5.67758V51.0967Z" fill="black"/>
<path d="M8.51596 51.0967H5.67725V53.9354H8.51596V51.0967Z" fill="black"/>
<path d="M11.3548 51.0967H8.51611V53.9354H11.3548V51.0967Z" fill="black"/>
<path d="M17.0321 51.0967H14.1934V53.9354H17.0321V51.0967Z" fill="black"/>
<path d="M19.8709 51.0967H17.0322V53.9354H19.8709V51.0967Z" fill="black"/>
<path d="M25.5482 51.0967H22.7095V53.9354H25.5482V51.0967Z" fill="black"/>
<path d="M28.387 51.0967H25.5483V53.9354H28.387V51.0967Z" fill="black"/>
<path d="M31.2259 51.0967H28.3872V53.9354H31.2259V51.0967Z" fill="black"/>
<path d="M34.0643 51.0967H31.2256V53.9354H34.0643V51.0967Z" fill="black"/>
<path d="M36.9032 51.0967H34.0645V53.9354H36.9032V51.0967Z" fill="black"/>
<path d="M39.742 51.0967H36.9033V53.9354H39.742V51.0967Z" fill="black"/>
<path d="M42.5804 51.0967H39.7417V53.9354H42.5804V51.0967Z" fill="black"/>
<path d="M45.4193 51.0967H42.5806V53.9354H45.4193V51.0967Z" fill="black"/>
<path d="M51.097 51.0967H48.2583V53.9354H51.097V51.0967Z" fill="black"/>
<path d="M56.7743 51.0967H53.9355V53.9354H56.7743V51.0967Z" fill="black"/>
<path d="M62.4515 51.0967H59.6128V53.9354H62.4515V51.0967Z" fill="black"/>
<path d="M73.8065 51.0967H70.9678V53.9354H73.8065V51.0967Z" fill="black"/>
<path d="M5.67758 53.9355H2.83887V56.7743H5.67758V53.9355Z" fill="black"/>
<path d="M8.51596 53.9355H5.67725V56.7743H8.51596V53.9355Z" fill="black"/>
<path d="M14.1937 53.9355H11.355V56.7743H14.1937V53.9355Z" fill="black"/>
<path d="M17.0321 53.9355H14.1934V56.7743H17.0321V53.9355Z" fill="black"/>
<path d="M19.8709 53.9355H17.0322V56.7743H19.8709V53.9355Z" fill="black"/>
<path d="M22.7098 53.9355H19.8711V56.7743H22.7098V53.9355Z" fill="black"/>
<path d="M31.2259 53.9355H28.3872V56.7743H31.2259V53.9355Z" fill="black"/>
<path d="M36.9032 53.9355H34.0645V56.7743H36.9032V53.9355Z" fill="black"/>
<path d="M39.742 53.9355H36.9033V56.7743H39.742V53.9355Z" fill="black"/>
<path d="M48.2581 53.9355H45.4194V56.7743H48.2581V53.9355Z" fill="black"/>
<path d="M62.4515 53.9355H59.6128V56.7743H62.4515V53.9355Z" fill="black"/>
<path d="M73.8065 53.9355H70.9678V56.7743H73.8065V53.9355Z" fill="black"/>
<path d="M79.4837 53.9355H76.645V56.7743H79.4837V53.9355Z" fill="black"/>
<path d="M85.1615 53.9355H82.3228V56.7743H85.1615V53.9355Z" fill="black"/>
<path d="M5.67758 56.7742H2.83887V59.6129H5.67758V56.7742Z" fill="black"/>
<path d="M8.51596 56.7742H5.67725V59.6129H8.51596V56.7742Z" fill="black"/>
<path d="M14.1937 56.7742H11.355V59.6129H14.1937V56.7742Z" fill="black"/>
<path d="M19.8709 56.7742H17.0322V59.6129H19.8709V56.7742Z" fill="black"/>
<path d="M36.9032 56.7742H34.0645V59.6129H36.9032V56.7742Z" fill="black"/>
<path d="M39.742 56.7742H36.9033V59.6129H39.742V56.7742Z" fill="black"/>
<path d="M42.5804 56.7742H39.7417V59.6129H42.5804V56.7742Z" fill="black"/>
<path d="M45.4193 56.7742H42.5806V59.6129H45.4193V56.7742Z" fill="black"/>
<path d="M56.7743 56.7742H53.9355V59.6129H56.7743V56.7742Z" fill="black"/>
<path d="M65.2904 56.7742H62.4517V59.6129H65.2904V56.7742Z" fill="black"/>
<path d="M68.1292 56.7742H65.2905V59.6129H68.1292V56.7742Z" fill="black"/>
<path d="M73.8065 56.7742H70.9678V59.6129H73.8065V56.7742Z" fill="black"/>
<path d="M79.4837 56.7742H76.645V59.6129H79.4837V56.7742Z" fill="black"/>
<path d="M5.67758 59.6128H2.83887V62.4515H5.67758V59.6128Z" fill="black"/>
<path d="M8.51596 59.6128H5.67725V62.4515H8.51596V59.6128Z" fill="black"/>
<path d="M11.3548 59.6128H8.51611V62.4515H11.3548V59.6128Z" fill="black"/>
<path d="M14.1937 59.6128H11.355V62.4515H14.1937V59.6128Z" fill="black"/>
<path d="M17.0321 59.6128H14.1934V62.4515H17.0321V59.6128Z" fill="black"/>
<path d="M22.7098 59.6128H19.8711V62.4515H22.7098V59.6128Z" fill="black"/>
<path d="M25.5482 59.6128H22.7095V62.4515H25.5482V59.6128Z" fill="black"/>
<path d="M28.387 59.6128H25.5483V62.4515H28.387V59.6128Z" fill="black"/>
<path d="M31.2259 59.6128H28.3872V62.4515H31.2259V59.6128Z" fill="black"/>
<path d="M42.5804 59.6128H39.7417V62.4515H42.5804V59.6128Z" fill="black"/>
<path d="M48.2581 59.6128H45.4194V62.4515H48.2581V59.6128Z" fill="black"/>
<path d="M53.9354 59.6128H51.0967V62.4515H53.9354V59.6128Z" fill="black"/>
<path d="M62.4515 59.6128H59.6128V62.4515H62.4515V59.6128Z" fill="black"/>
<path d="M65.2904 59.6128H62.4517V62.4515H65.2904V59.6128Z" fill="black"/>
<path d="M68.1292 59.6128H65.2905V62.4515H68.1292V59.6128Z" fill="black"/>
<path d="M70.9676 59.6128H68.1289V62.4515H70.9676V59.6128Z" fill="black"/>
<path d="M73.8065 59.6128H70.9678V62.4515H73.8065V59.6128Z" fill="black"/>
<path d="M79.4837 59.6128H76.645V62.4515H79.4837V59.6128Z" fill="black"/>
<path d="M82.3226 59.6128H79.4839V62.4515H82.3226V59.6128Z" fill="black"/>
<path d="M28.387 62.4517H25.5483V65.2904H28.387V62.4517Z" fill="black"/>
<path d="M34.0643 62.4517H31.2256V65.2904H34.0643V62.4517Z" fill="black"/>
<path d="M48.2581 62.4517H45.4194V65.2904H48.2581V62.4517Z" fill="black"/>
<path d="M56.7743 62.4517H53.9355V65.2904H56.7743V62.4517Z" fill="black"/>
<path d="M62.4515 62.4517H59.6128V65.2904H62.4515V62.4517Z" fill="black"/>
<path d="M73.8065 62.4517H70.9678V65.2904H73.8065V62.4517Z" fill="black"/>
<path d="M76.6454 62.4517H73.8066V65.2904H76.6454V62.4517Z" fill="black"/>
<path d="M79.4837 62.4517H76.645V65.2904H79.4837V62.4517Z" fill="black"/>
<path d="M5.67758 65.2903H2.83887V68.129H5.67758V65.2903Z" fill="black"/>
<path d="M8.51596 65.2903H5.67725V68.129H8.51596V65.2903Z" fill="black"/>
<path d="M11.3548 65.2903H8.51611V68.129H11.3548V65.2903Z" fill="black"/>
<path d="M14.1937 65.2903H11.355V68.129H14.1937V65.2903Z" fill="black"/>
<path d="M17.0321 65.2903H14.1934V68.129H17.0321V65.2903Z" fill="black"/>
<path d="M19.8709 65.2903H17.0322V68.129H19.8709V65.2903Z" fill="black"/>
<path d="M22.7098 65.2903H19.8711V68.129H22.7098V65.2903Z" fill="black"/>
<path d="M31.2259 65.2903H28.3872V68.129H31.2259V65.2903Z" fill="black"/>
<path d="M39.742 65.2903H36.9033V68.129H39.742V65.2903Z" fill="black"/>
<path d="M42.5804 65.2903H39.7417V68.129H42.5804V65.2903Z" fill="black"/>
<path d="M45.4193 65.2903H42.5806V68.129H45.4193V65.2903Z" fill="black"/>
<path d="M48.2581 65.2903H45.4194V68.129H48.2581V65.2903Z" fill="black"/>
<path d="M53.9354 65.2903H51.0967V68.129H53.9354V65.2903Z" fill="black"/>
<path d="M56.7743 65.2903H53.9355V68.129H56.7743V65.2903Z" fill="black"/>
<path d="M59.6131 65.2903H56.7744V68.129H59.6131V65.2903Z" fill="black"/>
<path d="M62.4515 65.2903H59.6128V68.129H62.4515V65.2903Z" fill="black"/>
<path d="M68.1292 65.2903H65.2905V68.129H68.1292V65.2903Z" fill="black"/>
<path d="M73.8065 65.2903H70.9678V68.129H73.8065V65.2903Z" fill="black"/>
<path d="M79.4837 65.2903H76.645V68.129H79.4837V65.2903Z" fill="black"/>
<path d="M5.67758 68.1292H2.83887V70.9679H5.67758V68.1292Z" fill="black"/>
<path d="M22.7098 68.1292H19.8711V70.9679H22.7098V68.1292Z" fill="black"/>
<path d="M28.387 68.1292H25.5483V70.9679H28.387V68.1292Z" fill="black"/>
<path d="M31.2259 68.1292H28.3872V70.9679H31.2259V68.1292Z" fill="black"/>
<path d="M36.9032 68.1292H34.0645V70.9679H36.9032V68.1292Z" fill="black"/>
<path d="M39.742 68.1292H36.9033V70.9679H39.742V68.1292Z" fill="black"/>
<path d="M42.5804 68.1292H39.7417V70.9679H42.5804V68.1292Z" fill="black"/>
<path d="M48.2581 68.1292H45.4194V70.9679H48.2581V68.1292Z" fill="black"/>
<path d="M53.9354 68.1292H51.0967V70.9679H53.9354V68.1292Z" fill="black"/>
<path d="M59.6131 68.1292H56.7744V70.9679H59.6131V68.1292Z" fill="black"/>
<path d="M62.4515 68.1292H59.6128V70.9679H62.4515V68.1292Z" fill="black"/>
<path d="M73.8065 68.1292H70.9678V70.9679H73.8065V68.1292Z" fill="black"/>
<path d="M76.6454 68.1292H73.8066V70.9679H76.6454V68.1292Z" fill="black"/>
<path d="M85.1615 68.1292H82.3228V70.9679H85.1615V68.1292Z" fill="black"/>
<path d="M5.67758 70.9678H2.83887V73.8065H5.67758V70.9678Z" fill="black"/>
<path d="M11.3548 70.9678H8.51611V73.8065H11.3548V70.9678Z" fill="black"/>
<path d="M14.1937 70.9678H11.355V73.8065H14.1937V70.9678Z" fill="black"/>
<path d="M17.0321 70.9678H14.1934V73.8065H17.0321V70.9678Z" fill="black"/>
<path d="M22.7098 70.9678H19.8711V73.8065H22.7098V70.9678Z" fill="black"/>
<path d="M28.387 70.9678H25.5483V73.8065H28.387V70.9678Z" fill="black"/>
<path d="M34.0643 70.9678H31.2256V73.8065H34.0643V70.9678Z" fill="black"/>
<path d="M39.742 70.9678H36.9033V73.8065H39.742V70.9678Z" fill="black"/>
<path d="M45.4193 70.9678H42.5806V73.8065H45.4193V70.9678Z" fill="black"/>
<path d="M51.097 70.9678H48.2583V73.8065H51.097V70.9678Z" fill="black"/>
<path d="M53.9354 70.9678H51.0967V73.8065H53.9354V70.9678Z" fill="black"/>
<path d="M56.7743 70.9678H53.9355V73.8065H56.7743V70.9678Z" fill="black"/>
<path d="M59.6131 70.9678H56.7744V73.8065H59.6131V70.9678Z" fill="black"/>
<path d="M62.4515 70.9678H59.6128V73.8065H62.4515V70.9678Z" fill="black"/>
<path d="M65.2904 70.9678H62.4517V73.8065H65.2904V70.9678Z" fill="black"/>
<path d="M68.1292 70.9678H65.2905V73.8065H68.1292V70.9678Z" fill="black"/>
<path d="M70.9676 70.9678H68.1289V73.8065H70.9676V70.9678Z" fill="black"/>
<path d="M73.8065 70.9678H70.9678V73.8065H73.8065V70.9678Z" fill="black"/>
<path d="M85.1615 70.9678H82.3228V73.8065H85.1615V70.9678Z" fill="black"/>
<path d="M5.67758 73.8064H2.83887V76.6451H5.67758V73.8064Z" fill="black"/>
<path d="M11.3548 73.8064H8.51611V76.6451H11.3548V73.8064Z" fill="black"/>
<path d="M14.1937 73.8064H11.355V76.6451H14.1937V73.8064Z" fill="black"/>
<path d="M17.0321 73.8064H14.1934V76.6451H17.0321V73.8064Z" fill="black"/>
<path d="M22.7098 73.8064H19.8711V76.6451H22.7098V73.8064Z" fill="black"/>
<path d="M28.387 73.8064H25.5483V76.6451H28.387V73.8064Z" fill="black"/>
<path d="M31.2259 73.8064H28.3872V76.6451H31.2259V73.8064Z" fill="black"/>
<path d="M39.742 73.8064H36.9033V76.6451H39.742V73.8064Z" fill="black"/>
<path d="M51.097 73.8064H48.2583V76.6451H51.097V73.8064Z" fill="black"/>
<path d="M53.9354 73.8064H51.0967V76.6451H53.9354V73.8064Z" fill="black"/>
<path d="M65.2904 73.8064H62.4517V76.6451H65.2904V73.8064Z" fill="black"/>
<path d="M70.9676 73.8064H68.1289V76.6451H70.9676V73.8064Z" fill="black"/>
<path d="M76.6454 73.8064H73.8066V76.6451H76.6454V73.8064Z" fill="black"/>
<path d="M82.3226 73.8064H79.4839V76.6451H82.3226V73.8064Z" fill="black"/>
<path d="M5.67758 76.6453H2.83887V79.484H5.67758V76.6453Z" fill="black"/>
<path d="M11.3548 76.6453H8.51611V79.484H11.3548V76.6453Z" fill="black"/>
<path d="M14.1937 76.6453H11.355V79.484H14.1937V76.6453Z" fill="black"/>
<path d="M17.0321 76.6453H14.1934V79.484H17.0321V76.6453Z" fill="black"/>
<path d="M22.7098 76.6453H19.8711V79.484H22.7098V76.6453Z" fill="black"/>
<path d="M34.0643 76.6453H31.2256V79.484H34.0643V76.6453Z" fill="black"/>
<path d="M36.9032 76.6453H34.0645V79.484H36.9032V76.6453Z" fill="black"/>
<path d="M39.742 76.6453H36.9033V79.484H39.742V76.6453Z" fill="black"/>
<path d="M42.5804 76.6453H39.7417V79.484H42.5804V76.6453Z" fill="black"/>
<path d="M51.097 76.6453H48.2583V79.484H51.097V76.6453Z" fill="black"/>
<path d="M53.9354 76.6453H51.0967V79.484H53.9354V76.6453Z" fill="black"/>
<path d="M56.7743 76.6453H53.9355V79.484H56.7743V76.6453Z" fill="black"/>
<path d="M62.4515 76.6453H59.6128V79.484H62.4515V76.6453Z" fill="black"/>
<path d="M65.2904 76.6453H62.4517V79.484H65.2904V76.6453Z" fill="black"/>
<path d="M73.8065 76.6453H70.9678V79.484H73.8065V76.6453Z" fill="black"/>
<path d="M82.3226 76.6453H79.4839V79.484H82.3226V76.6453Z" fill="black"/>
<path d="M85.1615 76.6453H82.3228V79.484H85.1615V76.6453Z" fill="black"/>
<path d="M5.67758 79.4839H2.83887V82.3226H5.67758V79.4839Z" fill="black"/>
<path d="M22.7098 79.4839H19.8711V82.3226H22.7098V79.4839Z" fill="black"/>
<path d="M28.387 79.4839H25.5483V82.3226H28.387V79.4839Z" fill="black"/>
<path d="M36.9032 79.4839H34.0645V82.3226H36.9032V79.4839Z" fill="black"/>
<path d="M45.4193 79.4839H42.5806V82.3226H45.4193V79.4839Z" fill="black"/>
<path d="M48.2581 79.4839H45.4194V82.3226H48.2581V79.4839Z" fill="black"/>
<path d="M62.4515 79.4839H59.6128V82.3226H62.4515V79.4839Z" fill="black"/>
<path d="M73.8065 79.4839H70.9678V82.3226H73.8065V79.4839Z" fill="black"/>
<path d="M76.6454 79.4839H73.8066V82.3226H76.6454V79.4839Z" fill="black"/>
<path d="M79.4837 79.4839H76.645V82.3226H79.4837V79.4839Z" fill="black"/>
<path d="M85.1615 79.4839H82.3228V82.3226H85.1615V79.4839Z" fill="black"/>
<path d="M5.67758 82.3225H2.83887V85.1612H5.67758V82.3225Z" fill="black"/>
<path d="M8.51596 82.3225H5.67725V85.1612H8.51596V82.3225Z" fill="black"/>
<path d="M11.3548 82.3225H8.51611V85.1612H11.3548V82.3225Z" fill="black"/>
<path d="M14.1937 82.3225H11.355V85.1612H14.1937V82.3225Z" fill="black"/>
<path d="M17.0321 82.3225H14.1934V85.1612H17.0321V82.3225Z" fill="black"/>
<path d="M19.8709 82.3225H17.0322V85.1612H19.8709V82.3225Z" fill="black"/>
<path d="M22.7098 82.3225H19.8711V85.1612H22.7098V82.3225Z" fill="black"/>
<path d="M31.2259 82.3225H28.3872V85.1612H31.2259V82.3225Z" fill="black"/>
<path d="M36.9032 82.3225H34.0645V85.1612H36.9032V82.3225Z" fill="black"/>
<path d="M42.5804 82.3225H39.7417V85.1612H42.5804V82.3225Z" fill="black"/>
<path d="M56.7743 82.3225H53.9355V85.1612H56.7743V82.3225Z" fill="black"/>
<path d="M62.4515 82.3225H59.6128V85.1612H62.4515V82.3225Z" fill="black"/>
<path d="M65.2904 82.3225H62.4517V85.1612H65.2904V82.3225Z" fill="black"/>
<path d="M68.1292 82.3225H65.2905V85.1612H68.1292V82.3225Z" fill="black"/>
<path d="M70.9676 82.3225H68.1289V85.1612H70.9676V82.3225Z" fill="black"/>
<path d="M73.8065 82.3225H70.9678V85.1612H73.8065V82.3225Z" fill="black"/>
<path d="M76.6454 82.3225H73.8066V85.1612H76.6454V82.3225Z" fill="black"/>
</g>
<defs>
<clipPath id="clip0_2527_8308">
<rect width="88" height="88" fill="white"/>
</clipPath>
</defs>
</svg>
